<?xml version="1.0" encoding="UTF-8"?>
<svg id="Layer_2" data-name="Layer 2" xmlns="http://www.w3.org/2000/svg" viewBox="0 0 206.96 168.25">
  <defs>
    <style>
      .cls-1 {
        fill: #fdcd14;
      }

      .cls-2 {
        fill: #1e2448;
      }

      .cls-3 {
        fill: #fff;
        stroke: #8f92a4;
        stroke-miterlimit: 10;
      }
    </style>
  </defs>
  <g id="Layer_1-2" data-name="Layer 1">
    <g>
      <path class="cls-3" d="M103.48,167.75c-29.94,0-59.91-3.45-89.07-10.25l-1.79-.42c-7.1-1.66-12.12-7.99-12.12-15.28V26.45c0-7.29,5.02-13.62,12.12-15.28l1.79-.42C43.57,3.95,73.54.5,103.48.5c29.94,0,59.91,3.45,89.07,10.25l1.79.42c7.1,1.66,12.12,7.99,12.12,15.28v115.36c0,7.29-5.02,13.62-12.12,15.28l-1.79.42c-29.16,6.8-59.13,10.25-89.07,10.25Z"/>
      <path class="cls-2" d="M103.48,158.75c-29.26,0-58.54-3.37-87.03-10.02h0c-4.07-.95-6.96-4.58-6.96-8.76V28.28c0-4.18,2.88-7.81,6.96-8.76h0c28.49-6.65,57.77-10.02,87.03-10.02,29.25,0,58.53,3.37,87.03,10.02h0c4.07.95,6.96,4.58,6.96,8.76v111.69c0,4.18-2.88,7.81-6.96,8.76h0c-28.49,6.65-57.77,10.02-87.03,10.02Z"/>
      <path class="cls-1" d="M188.46,139.97c-22.09,5.15-51.01,9.78-84.98,9.78-22.68,0-51.89-2.06-84.98-9.78,0-56.65,0-55.03,0-111.69,22.09-5.15,51.01-9.78,84.98-9.78,22.68,0,51.89,2.06,84.98,9.78,0,56.65,0,55.03,0,111.69Z"/>
    </g>
  </g>
</svg>