<?xml version="1.0" encoding="UTF-8"?>
<svg id="Layer_2" data-name="Layer 2" xmlns="http://www.w3.org/2000/svg" viewBox="0 0 659.82 345.76">
  <defs>
    <style>
      .cls-3 { isolation: isolate; }
      .cls-4 { fill: #1e2448; }
      .cls-5 { fill: #fff; }
      .cls-7 { fill: none; }
    </style>
  </defs>
  <g id="Layer_1-2" data-name="Layer 1">
    <g id="_01-boat-yellow-navy" data-name="01-boat-yellow-navy">
      <path class="cls-7" d="M316.52,259.59c-91.66,2.75-180.14-2.56-255.87-15.36-12.65-2.14-22.1-12.99-22.49-25.81l-4.8-159.93c-.38-12.82,8.41-24.22,20.9-27.11C129.09,14.06,217.09,3.45,308.75.71c91.66-2.75,180.14,2.56,255.87,15.36,12.65,2.14,22.1,12.99,22.49,25.81l4.8,159.93c.38,12.82-8.41,24.22-20.9,27.11-74.83,17.31-162.83,27.92-254.49,30.67Z"/>
      <path class="cls-4" d="M315.98,241.6c-90.5,2.71-177.75-2.51-252.33-15.12-4.23-.71-7.37-4.32-7.5-8.6l-4.8-159.93c-.13-4.29,2.79-8.07,6.97-9.04,73.69-17.05,160.48-27.5,250.97-30.21,90.5-2.71,177.75,2.51,252.33,15.12,4.23.71,7.37,4.32,7.5,8.6l4.8,159.93c.13,4.29-2.79,8.07-6.97,9.04-73.69,17.05-160.48,27.5-250.97,30.21Z"/>
      <path class="cls-5" d="M60.35,57.68c149.03-34.48,348.94-40.48,499.78-14.99l4.8,159.93c-149.03,34.48-348.94,40.48-499.78,14.99l-4.8-159.93Z"/>
    </g>
    <g id="_04-bow-end-orange-navy" data-name="04-bow-end-orange-navy">
      <path class="cls-7" d="M222.47,290.58c-69.74-6.39-121.27-68.32-114.88-138.06,6.39-69.74,68.32-121.27,138.06-114.88l298.75,27.38c69.74,6.39,121.27,68.32,114.88,138.06-6.39,69.74-68.32,121.27-138.06,114.88l-298.75-27.38Z"/>
      <path class="cls-4" d="M224.12,272.65c-59.85-5.48-104.08-58.64-98.6-118.49,5.48-59.85,58.64-104.08,118.49-98.6l298.75,27.38c59.85,5.48,104.08,58.64,98.6,118.49-5.48,59.85-58.64,104.08-118.49,98.6l-298.75-27.38Z"/>
      <path class="cls-5" d="M243.19,64.52l298.75,27.38c55,5.04,95.5,53.71,90.46,108.71-5.04,55-53.71,95.5-108.71,90.46l-298.75-27.38c-55-5.04-95.5-53.71-90.46-108.71,5.04-55,53.71-95.5,108.71-90.46Z"/>
    </g>
    <g id="_02-oval-navy-yellow" data-name="02-oval-navy-yellow">
      <path class="cls-7" d="M280.71,345.46c-70.1,2.1-136.74-6.99-187.66-25.61C34.22,298.34,1.19,265.3.03,226.82s29.84-73.44,87.28-98.44c49.71-21.63,115.69-34.7,185.78-36.81,70.1-2.1,136.74,6.99,187.66,25.61,58.83,21.51,91.87,54.55,93.03,93.03,1.15,38.48-29.84,73.44-87.28,98.44-49.71,21.63-115.69,34.7-185.78,36.81Z"/>
      <path class="cls-4" d="M280.17,327.47c-67.86,2.04-132.12-6.67-180.94-24.52-51.45-18.81-80.3-46.04-81.22-76.67-.92-30.63,26.24-59.53,76.48-81.4,47.66-20.74,111.28-33.28,179.14-35.32,67.86-2.04,132.12,6.67,180.94,24.52,51.45,18.81,80.3,46.04,81.22,76.67.92,30.63-26.24,59.53-76.48,81.4-47.66,20.74-111.28,33.28-179.14,35.32Z"/>
      <ellipse class="cls-5" cx="276.91" cy="218.52" rx="250" ry="100" transform="translate(-6.43 8.4) rotate(-1.72)"/>
      <g class="cls-3">
        <path class="cls-4" d="M69.46,239.72l2.18-9.09-8.35.25,1.45-6.19,8.35-.25,1.15-4.98-8.35.25,1.5-6.14,8.3-.25,2.01-8.37,6.33-.19-2.01,8.37,5.18-.16,2.01-8.37,6.33-.19-2.01,8.37,8.35-.25-1.45,6.14-8.35.25-1.2,4.98,8.35-.25-1.45,6.19-8.35.25-2.13,9.09-6.33.19,2.13-9.09-5.18.16-2.13,9.09-6.33.19ZM79.41,224.25l5.13-.15,1.2-4.98-5.18.16-1.15,4.98Z"/>
        <path class="cls-4" d="M107.22,238.64l-1.04-34.54,14.59-.44c.34,0,.79-.01,1.36,0,.57,0,1.08.04,1.53.11,2.07.26,3.78.89,5.13,1.89,1.35,1,2.36,2.28,3.03,3.83.67,1.56,1.04,3.3,1.09,5.24.06,1.94-.21,3.7-.79,5.29-.58,1.59-1.52,2.93-2.81,4.01s-2.95,1.81-4.99,2.19c-.45.08-.96.14-1.53.19-.57.05-1.02.08-1.34.09l-8.06.24.35,11.71-6.53.2ZM113.21,220.64l7.77-.23c.34,0,.7-.04,1.1-.08.4-.04.76-.12,1.1-.23.87-.27,1.54-.69,2-1.27s.77-1.22.94-1.92c.16-.7.24-1.36.22-1.99-.02-.62-.13-1.28-.33-1.97-.21-.69-.56-1.31-1.05-1.87-.5-.55-1.19-.94-2.08-1.15-.34-.08-.71-.14-1.11-.16-.4-.02-.77-.03-1.11-.02l-7.77.23.32,10.65Z"/>
        <path class="cls-4" d="M136.72,237.75l-.78-25.91,5.76-.17.19,6.33-.65-.8c.31-.91.73-1.74,1.27-2.49.54-.75,1.21-1.38,2.01-1.88.61-.4,1.28-.72,2.01-.96.73-.24,1.49-.4,2.27-.48.78-.08,1.57-.08,2.35,0l.18,6.09c-.73-.2-1.57-.25-2.51-.15s-1.8.35-2.56.74c-.76.38-1.39.86-1.9,1.46-.51.6-.89,1.3-1.14,2.1-.25.8-.36,1.7-.33,2.69l.4,13.24-6.57.2Z"/>
        <path class="cls-4" d="M152.41,237.28l-.02-.82,12.13-19.81-11.28.34-.17-5.66,21.35-.64.02.82-12.08,19.81,12.19-.37.17,5.66-22.31.67Z"/>
        <path class="cls-4" d="M181.98,247.92l4.58-13.87.22,4.03-12.11-27.39,6.76-.2,8.17,19.4-1.54.05,6.94-19.85,6.52-.2-13.51,37.86-6.04.18Z"/>
        <path class="cls-4" d="M211.25,236.24c-2.75.08-5.04-.55-6.86-1.91-1.83-1.35-3.15-3.22-3.97-5.6l6.38-1.73c.17.88.66,1.63,1.46,2.25s1.64.92,2.52.9c.61-.02,1.25-.21,1.94-.56.69-.36,1.17-.91,1.45-1.65.18-.47.27-1.04.28-1.71.01-.67,0-1.45-.02-2.33l-.69-23.03,6.62-.2.69,23.03c.03,1.1.06,2.06.07,2.88.02.82-.04,1.58-.17,2.3s-.41,1.46-.83,2.25c-.92,1.72-2.16,2.99-3.7,3.81-1.54.81-3.27,1.25-5.17,1.31Z"/>
        <path class="cls-4" d="M238.99,235.41c-2.66.08-5.01-.42-7.07-1.5-2.06-1.08-3.69-2.61-4.89-4.58-1.2-1.97-1.84-4.25-1.92-6.85-.08-2.83.4-5.31,1.46-7.44,1.06-2.13,2.55-3.8,4.48-5.02,1.93-1.22,4.18-1.87,6.74-1.94,2.72-.08,5.05.49,6.99,1.71,1.94,1.22,3.4,2.98,4.38,5.27.98,2.29,1.38,5.01,1.21,8.15l-6.45.19-.07-2.4c-.08-2.64-.56-4.53-1.43-5.66-.88-1.13-2.26-1.67-4.17-1.62-2.22.07-3.84.79-4.85,2.17s-1.47,3.39-1.39,6.03c.07,2.42.65,4.27,1.74,5.55s2.65,1.9,4.68,1.84c1.28-.04,2.37-.35,3.26-.94s1.57-1.42,2.01-2.49l6.58,1.67c-.91,2.4-2.39,4.28-4.45,5.66-2.06,1.38-4.34,2.1-6.84,2.17ZM230.04,223.81l-.15-4.85,17.18-.51.15,4.84-17.18.52Z"/>
        <path class="cls-4" d="M264.94,234.63c-2.38.07-4.49-.46-6.32-1.61-1.83-1.15-3.27-2.73-4.33-4.77-1.06-2.03-1.63-4.35-1.71-6.94-.08-2.64.36-5,1.31-7.09.95-2.09,2.33-3.75,4.14-4.99,1.8-1.24,3.95-1.9,6.42-1.97,2.46-.07,4.55.46,6.27,1.61,1.71,1.15,3.04,2.74,3.96,4.78s1.43,4.35,1.5,6.94c.08,2.59-.29,4.93-1.1,7.02-.81,2.09-2.06,3.76-3.75,5.01s-3.83,1.92-6.4,1.99ZM265.82,228.79c1.46-.04,2.61-.41,3.46-1.09.85-.68,1.45-1.62,1.8-2.82.35-1.2.5-2.58.45-4.14-.05-1.57-.28-2.94-.7-4.11s-1.06-2.07-1.92-2.7c-.86-.63-1.97-.93-3.33-.88-1.46.04-2.64.44-3.55,1.17-.91.74-1.58,1.71-1.99,2.92s-.6,2.53-.55,3.97c.04,1.46.3,2.77.77,3.95s1.16,2.11,2.08,2.78c.92.68,2.08.99,3.49.95ZM271.92,233.7l-.53-17.75-.82.02-.5-16.79,6.57-.2,1.04,34.54-5.76.17Z"/>
        <path class="cls-4" d="M282.67,233.38l-.78-25.91,5.81-.17.26,8.59.82-.02.52,17.32-6.62.2ZM300.38,232.85l-.37-12.24c-.02-.59-.07-1.35-.16-2.26-.09-.92-.32-1.83-.68-2.75-.36-.92-.94-1.68-1.71-2.28-.78-.6-1.86-.88-3.25-.84-.56.02-1.16.12-1.79.32s-1.22.55-1.77,1.07-.98,1.27-1.31,2.26c-.33.99-.47,2.29-.42,3.9l-3.79-1.66c-.06-2.05.3-3.98,1.07-5.79s1.99-3.3,3.62-4.46c1.64-1.15,3.73-1.77,6.27-1.84,2.03-.06,3.7.23,5,.88s2.32,1.49,3.07,2.53c.74,1.03,1.28,2.12,1.62,3.25.34,1.14.55,2.17.65,3.12.09.94.14,1.63.16,2.06l.44,14.54-6.62.2Z"/>
        <path class="cls-4" d="M314.25,243.95l4.58-13.87.22,4.03-12.11-27.39,6.77-.2,8.17,19.4-1.54.05,6.95-19.85,6.52-.2-13.51,37.86-6.05.18Z"/>
        <path class="cls-4" d="M336.22,231.77l-.78-25.91,5.76-.17.26,8.59.82-.02.52,17.32-6.57.2ZM351.86,231.3l-.46-15.3c-.05-1.71-.5-3.03-1.33-3.96-.84-.93-1.97-1.37-3.39-1.33-1.36.04-2.44.54-3.23,1.5-.8.96-1.17,2.18-1.13,3.67l-2.79-1.84c-.05-1.69.33-3.23,1.13-4.6.81-1.37,1.92-2.47,3.32-3.29,1.41-.83,3-1.27,4.77-1.32,2.03-.06,3.71.32,5.04,1.15,1.33.83,2.33,1.95,2.99,3.37s1.03,2.99,1.08,4.72l.51,17.03-6.53.2ZM367.45,230.83l-.46-15.31c-.05-1.71-.5-3.03-1.33-3.96-.84-.93-1.97-1.37-3.39-1.33-.91.03-1.7.26-2.36.71-.66.44-1.17,1.05-1.52,1.82-.35.77-.51,1.65-.48,2.64l-2.79-1.74c-.05-1.77.32-3.35,1.12-4.74s1.89-2.48,3.29-3.28c1.39-.8,2.95-1.23,4.68-1.28,2.96-.09,5.22.72,6.78,2.43,1.56,1.71,2.39,3.97,2.47,6.8l.51,17.03-6.53.2Z"/>
        <path class="cls-4" d="M391.6,230.83c-2.56.08-4.88-.31-6.96-1.15-2.08-.84-3.81-2.09-5.18-3.73s-2.27-3.63-2.69-5.96l6.78-1.21c.54,1.97,1.58,3.47,3.11,4.49,1.54,1.03,3.26,1.51,5.18,1.45,1.07-.03,2.11-.23,3.1-.6,1-.37,1.81-.89,2.44-1.56s.93-1.49.9-2.45c-.01-.35-.07-.69-.19-1.01-.12-.32-.3-.63-.54-.91-.25-.28-.6-.54-1.04-.79-.45-.24-1.01-.46-1.69-.65l-9.05-2.37c-.68-.17-1.47-.42-2.36-.75-.9-.33-1.77-.8-2.62-1.43-.85-.63-1.57-1.48-2.15-2.54-.58-1.06-.9-2.42-.95-4.07-.07-2.32.46-4.26,1.58-5.83s2.65-2.76,4.58-3.57c1.93-.81,4.08-1.24,6.44-1.3,2.38-.04,4.52.3,6.42,1.03,1.89.73,3.5,1.82,4.8,3.28,1.31,1.46,2.27,3.26,2.9,5.4l-7.02,1.41c-.29-1.11-.79-2.04-1.5-2.79-.71-.75-1.55-1.31-2.51-1.68-.96-.37-1.97-.56-3.01-.56-1.03,0-1.98.17-2.88.51-.89.34-1.62.81-2.17,1.42-.55.61-.81,1.32-.79,2.14.02.75.27,1.36.75,1.81.48.46,1.07.82,1.79,1.09.71.27,1.44.49,2.18.66l6.05,1.45c.9.21,1.9.5,3,.86,1.1.36,2.16.87,3.18,1.54,1.02.67,1.87,1.56,2.55,2.67.68,1.12,1.05,2.54,1.1,4.29.06,1.86-.28,3.49-1.02,4.89-.73,1.41-1.74,2.58-3.03,3.52-1.29.94-2.75,1.66-4.39,2.16-1.64.5-3.34.77-5.1.83Z"/>
        <path class="cls-4" d="M405.54,208.8l-.15-5.04,18.42-.55.15,5.04-18.42.55ZM424.59,229.12c-1.78.39-3.53.59-5.25.6-1.72.01-3.27-.25-4.63-.77-1.37-.53-2.42-1.41-3.17-2.66-.68-1.16-1.05-2.36-1.12-3.58-.07-1.22-.13-2.61-.17-4.16l-.66-22.12,6.52-.2.65,21.73c.03,1.01.07,1.92.12,2.72.05.81.23,1.45.55,1.92.6.89,1.54,1.36,2.8,1.41s2.66-.06,4.19-.32l.16,5.42Z"/>
        <path class="cls-4" d="M438.91,229.41c-2.61.08-4.91-.44-6.91-1.55-2-1.11-3.58-2.67-4.74-4.7-1.16-2.02-1.78-4.37-1.86-7.04-.08-2.7.41-5.1,1.47-7.19s2.55-3.74,4.49-4.95c1.93-1.21,4.18-1.85,6.74-1.93,2.61-.08,4.92.44,6.93,1.54,2.01,1.11,3.6,2.67,4.76,4.7,1.17,2.02,1.79,4.37,1.87,7.04.08,2.69-.4,5.07-1.45,7.16-1.05,2.09-2.54,3.74-4.48,4.96-1.94,1.22-4.21,1.87-6.8,1.94ZM438.72,223.32c2.1-.06,3.64-.82,4.63-2.26.99-1.45,1.45-3.28,1.38-5.5-.07-2.3-.65-4.13-1.74-5.47-1.09-1.34-2.67-1.99-4.73-1.92-1.42.04-2.58.4-3.47,1.06s-1.54,1.58-1.95,2.72c-.41,1.15-.59,2.47-.54,3.98.07,2.32.65,4.15,1.74,5.48,1.09,1.34,2.65,1.97,4.68,1.91Z"/>
        <path class="cls-4" d="M456.11,228.18l-1.06-35.26,6.53-.2,1.06,35.26-6.53.2Z"/>
        <path class="cls-4" d="M480.22,228.17c-2.66.08-5.01-.42-7.07-1.5s-3.69-2.61-4.89-4.58c-1.2-1.97-1.84-4.25-1.92-6.84-.08-2.83.4-5.31,1.46-7.44,1.06-2.13,2.55-3.8,4.48-5.02s4.18-1.87,6.74-1.94c2.72-.08,5.05.49,6.99,1.71s3.4,2.98,4.38,5.27c.98,2.29,1.38,5.01,1.21,8.15l-6.45.19-.07-2.4c-.08-2.64-.55-4.52-1.43-5.66s-2.26-1.67-4.17-1.62c-2.22.07-3.84.79-4.85,2.17-1.01,1.38-1.47,3.39-1.39,6.03.07,2.42.65,4.27,1.74,5.55,1.09,1.29,2.65,1.9,4.68,1.84,1.28-.04,2.37-.35,3.26-.94.89-.59,1.57-1.42,2.01-2.49l6.58,1.68c-.91,2.4-2.39,4.28-4.45,5.66s-4.34,2.1-6.84,2.17ZM471.27,216.58l-.15-4.84,17.18-.52.15,4.85-17.18.51Z"/>
      </g>
    </g>
  </g>
</svg>
