<?xml version="1.0" encoding="UTF-8"?>
<svg id="Layer_2" data-name="Layer 2" xmlns="http://www.w3.org/2000/svg" viewBox="0 0 555 255">
  <defs>
    <style>
      .cls-1 {
        font-family: Manrope-ExtraBold, Manrope;
        font-size: 48px;
        font-variation-settings: 'wght' 800;
        font-weight: 700;
        isolation: isolate;
      }

      .cls-1, .cls-2 {
        fill: #1e2448;
      }

      .cls-3 {
        letter-spacing: -.07em;
      }

      .cls-4 {
        letter-spacing: -.04em;
      }

      .cls-5 {
        letter-spacing: -.04em;
      }

      .cls-6 {
        fill: #ff931e;
      }

      .cls-7 {
        letter-spacing: -.03em;
      }

      .cls-8 {
        fill: #fff;
        stroke: #8f92a4;
        stroke-miterlimit: 10;
      }

      .cls-9 {
        letter-spacing: -.05em;
      }
    </style>
  </defs>
  <g id="Layer_1-2" data-name="Layer 1">
    <g id="_02-oval-navy-yellow" data-name="02-oval-navy-yellow">
      <path class="cls-8" d="M277.5,254.5c-70.13,0-136.47-11.09-186.8-31.22C32.53,200.01.5,166,.5,127.5S32.53,54.99,90.7,31.72C141.03,11.59,207.37.5,277.5.5s136.47,11.09,186.8,31.22c58.16,23.27,90.2,57.28,90.2,95.78s-32.03,72.51-90.2,95.78c-50.33,20.13-116.67,31.22-186.8,31.22Z"/>
      <path class="cls-2" d="M277.5,236.5c-67.9,0-131.86-10.63-180.12-29.93-50.87-20.35-78.88-48.43-78.88-79.07s28.01-58.72,78.88-79.07c48.26-19.3,112.22-29.93,180.12-29.93s131.86,10.63,180.12,29.93c50.87,20.35,78.88,48.43,78.88,79.07s-28.01,58.72-78.88,79.07c-48.26,19.3-112.22,29.93-180.12,29.93Z"/>
      <ellipse class="cls-6" cx="277.5" cy="127.5" rx="250" ry="100"/>
      <text class="cls-1" transform="translate(60.76 142.5)"><tspan class="cls-5" x="0" y="0">#Pr</tspan><tspan class="cls-4" x="90.81" y="0">z</tspan><tspan class="cls-7" x="114.33" y="0">yJed</tspan><tspan class="cls-9" x="218.78" y="0">n</tspan><tspan class="cls-7" x="246.67" y="0">ymS</tspan><tspan class="cls-3" x="345.16" y="0">t</tspan><tspan class="cls-7" x="363.35" y="0">ole</tspan></text>
    </g>
  </g>
</svg>