<?xml version="1.0" encoding="UTF-8"?>
<svg id="Layer_2" data-name="Layer 2" xmlns="http://www.w3.org/2000/svg" viewBox="0 0 555 255">
  <defs>
    <style>
      .cls-1 {
        letter-spacing: -.07em;
      }

      .cls-2 {
        fill: #1e2448;
      }

      .cls-3 {
        letter-spacing: -.04em;
      }

      .cls-4 {
        letter-spacing: -.04em;
      }

      .cls-5 {
        fill: #ab539a;
      }

      .cls-6 {
        letter-spacing: -.03em;
      }

      .cls-7 {
        fill: #fff;
        stroke: #8f92a4;
        stroke-miterlimit: 10;
      }

      .cls-8 {
        letter-spacing: -.05em;
      }

      .cls-9 {
        fill: #fdcd14;
        font-family: Manrope-ExtraBold, Manrope;
        font-size: 48px;
        font-variation-settings: 'wght' 800;
        font-weight: 700;
        isolation: isolate;
      }
    </style>
  </defs>
  <g id="Layer_1-2" data-name="Layer 1">
    <g id="_06-notched-purple-yellow" data-name="06-notched-purple-yellow">
      <path class="cls-7" d="M67.5,254.5c-14.89,0-27-12.11-27-27,0-7.17-5.83-13-13-13-14.89,0-27-12.11-27-27v-120c0-14.89,12.11-27,27-27,7.17,0,13-5.83,13-13,0-14.89,12.11-27,27-27h420c14.89,0,27,12.11,27,27,0,7.17,5.83,13,13,13,14.89,0,27,12.11,27,27v120c0,14.89-12.11,27-27,27-7.17,0-13,5.83-13,13,0,14.89-12.11,27-27,27H67.5Z"/>
      <path class="cls-2" d="M67.5,236.5c-4.97,0-9-4.03-9-9,0-17.09-13.91-31-31-31-4.97,0-9-4.03-9-9v-120c0-4.97,4.03-9,9-9,17.09,0,31-13.91,31-31,0-4.97,4.03-9,9-9h420c4.97,0,9,4.03,9,9,0,17.09,13.91,31,31,31,4.97,0,9,4.03,9,9v120c0,4.97-4.03,9-9,9-17.09,0-31,13.91-31,31,0,4.97-4.03,9-9,9H67.5Z"/>
      <path class="cls-5" d="M67.5,27.5h420c0,22.09,17.91,40,40,40v120c-22.09,0-40,17.91-40,40H67.5c0-22.09-17.91-40-40-40v-120c22.09,0,40-17.91,40-40Z"/>
      <text class="cls-9" transform="translate(60.76 142.5)"><tspan class="cls-4" x="0" y="0">#Pr</tspan><tspan class="cls-3" x="90.81" y="0">z</tspan><tspan class="cls-6" x="114.33" y="0">yJed</tspan><tspan class="cls-8" x="218.78" y="0">n</tspan><tspan class="cls-6" x="246.67" y="0">ymS</tspan><tspan class="cls-1" x="345.16" y="0">t</tspan><tspan class="cls-6" x="363.35" y="0">ole</tspan></text>
    </g>
  </g>
</svg>