<?xml version="1.0" encoding="UTF-8"?>
<svg id="Layer_2" data-name="Layer 2" xmlns="http://www.w3.org/2000/svg" viewBox="0 0 1172.74 727.5">
  <defs>
    <style>
      .cls-1, .cls-2 {
        fill: #fdcd14;
      }

      .cls-3, .cls-4 {
        fill: #1e2448;
      }

      .cls-3, .cls-2 {
        font-family: Manrope-ExtraBold, Manrope;
        font-size: 48px;
        font-variation-settings: 'wght' 800;
        font-weight: 700;
        isolation: isolate;
      }

      .cls-5 {
        fill: #30a533;
      }

      .cls-6 {
        fill: #09b8e3;
      }

      .cls-7 {
        letter-spacing: -.07em;
      }

      .cls-8 {
        letter-spacing: -.04em;
      }

      .cls-9 {
        fill: #e30615;
      }

      .cls-10 {
        letter-spacing: -.04em;
      }

      .cls-11 {
        fill: #ab539a;
      }

      .cls-12 {
        fill: #ff931e;
      }

      .cls-13 {
        letter-spacing: -.03em;
      }

      .cls-14 {
        fill: #fff;
        stroke: #8f92a4;
        stroke-miterlimit: 10;
      }

      .cls-15 {
        letter-spacing: -.05em;
      }
    </style>
  </defs>
  <g id="Layer_1-2" data-name="Layer 1">
    <g id="_01-boat-yellow-navy" data-name="01-boat-yellow-navy">
      <path class="cls-14" d="M389.97,536.21c-91.67-2.33-179.72-12.53-254.63-29.5-12.51-2.83-21.35-14.2-21.03-27.02l4.06-159.95c.33-12.82,9.73-23.72,22.37-25.92,75.67-13.14,164.12-18.86,255.8-16.53,91.67,2.33,179.72,12.53,254.63,29.5,12.51,2.83,21.35,14.2,21.03,27.02l-4.06,159.95c-.33,12.82-9.73,23.72-22.37,25.92-75.67,13.14-164.12,18.86-255.8,16.53Z"/>
      <path class="cls-4" d="M390.42,518.21c-90.51-2.3-177.34-12.35-251.11-29.06-4.18-.95-7.12-4.72-7.01-9.01l4.06-159.95c.11-4.29,3.23-7.9,7.46-8.64,74.52-12.95,161.75-18.57,252.26-16.27,90.51,2.3,177.34,12.35,251.11,29.06,4.18.95,7.12,4.72,7.01,9.01l-4.06,159.95c-.11,4.29-3.23,7.9-7.46,8.64-74.52,12.95-161.75,18.57-252.26,16.27Z"/>
      <path class="cls-1" d="M145.37,320.42c150.71-26.18,350.65-21.1,499.84,12.7l-4.06,159.95c-150.71,26.18-350.65,21.1-499.84-12.7l4.06-159.95Z"/>
      <text class="cls-3" transform="translate(176.29 414.73) rotate(1.46)"><tspan class="cls-10" x="0" y="0">#Pr</tspan><tspan class="cls-8" x="90.81" y="0">z</tspan><tspan class="cls-13" x="114.33" y="0">yJed</tspan><tspan class="cls-15" x="218.78" y="0">n</tspan><tspan class="cls-13" x="246.67" y="0">ymS</tspan><tspan class="cls-7" x="345.16" y="0">t</tspan><tspan class="cls-13" x="363.35" y="0">ole</tspan></text>
    </g>
    <g id="_02-oval-navy-yellow" data-name="02-oval-navy-yellow">
      <path class="cls-14" d="M897.94,468.22c-70.12,1.47-136.67-8.23-187.42-27.3-58.64-22.04-91.37-55.38-92.18-93.87s30.51-73.17,88.17-97.65c49.9-21.18,115.99-33.66,186.11-35.12,70.12-1.47,136.67,8.23,187.42,27.3,58.64,22.04,91.37,55.38,92.18,93.87s-30.51,73.17-88.17,97.65c-49.9,21.18-115.99,33.66-186.11,35.12Z"/>
      <path class="cls-4" d="M897.57,450.22c-67.88,1.42-132.06-7.87-180.71-26.16-51.28-19.28-79.88-46.77-80.52-77.4-.64-30.63,26.78-59.29,77.21-80.7,47.84-20.31,111.57-32.28,179.45-33.7,67.88-1.42,132.06,7.87,180.71,26.16,51.28,19.28,79.88,46.77,80.52,77.4.64,30.63-26.78,59.29-77.21,80.7-47.84,20.31-111.57,32.28-179.45,33.7Z"/>
      <ellipse class="cls-12" cx="895.29" cy="341.24" rx="250" ry="100" transform="translate(-6.95 18.81) rotate(-1.2)"/>
      <text class="cls-3" transform="translate(678.93 360.74) rotate(-1.2)"><tspan class="cls-10" x="0" y="0">#Pr</tspan><tspan class="cls-8" x="90.81" y="0">z</tspan><tspan class="cls-13" x="114.33" y="0">yJed</tspan><tspan class="cls-15" x="218.78" y="0">n</tspan><tspan class="cls-13" x="246.67" y="0">ymS</tspan><tspan class="cls-7" x="345.16" y="0">t</tspan><tspan class="cls-13" x="363.35" y="0">ole</tspan></text>
    </g>
    <g id="_03-octagon-cyan-navy" data-name="03-octagon-cyan-navy">
      <path class="cls-14" d="M546.49,623.45c-5.34-.35-10.4-2.26-14.65-5.51l-57.23-43.86c-7.18-5.5-11.11-14.18-10.52-23.21l7.91-119.74c.6-9.03,5.63-17.11,13.48-21.62l62.5-35.96c4.63-2.67,9.91-3.89,15.24-3.54l379.17,25.04c5.34.35,10.4,2.26,14.65,5.51l57.23,43.86c7.18,5.5,11.11,14.18,10.52,23.21l-7.91,119.74c-.6,9.03-5.63,17.11-13.48,21.62l-62.5,35.96c-4.63,2.67-9.91,3.89-15.24,3.54l-379.17-25.04Z"/>
      <path class="cls-4" d="M547.67,605.49c-1.77-.12-3.47-.76-4.88-1.84l-57.23-43.87c-2.39-1.83-3.7-4.73-3.51-7.74l7.91-119.74c.2-3,1.88-5.71,4.49-7.21l62.5-35.96c1.54-.89,3.31-1.3,5.08-1.18l379.17,25.04c1.77.12,3.47.76,4.88,1.84l57.23,43.87c2.39,1.83,3.7,4.73,3.51,7.74l-7.91,119.74c-.2,3-1.88,5.71-4.49,7.21l-62.5,35.96c-1.54.89-3.31,1.3-5.08,1.18l-379.17-25.04Z"/>
      <path class="cls-6" d="M561.44,396.95l379.17,25.04,57.23,43.87-7.91,119.74-62.5,35.96-379.17-25.04-57.23-43.87,7.91-119.74,62.5-35.96Z"/>
      <text class="cls-3" transform="translate(527.21 509.95) rotate(3.78)"><tspan class="cls-10" x="0" y="0">#Pr</tspan><tspan class="cls-8" x="90.81" y="0">z</tspan><tspan class="cls-13" x="114.33" y="0">yJed</tspan><tspan class="cls-15" x="218.78" y="0">n</tspan><tspan class="cls-13" x="246.67" y="0">ymS</tspan><tspan class="cls-7" x="345.16" y="0">t</tspan><tspan class="cls-13" x="363.35" y="0">ole</tspan></text>
    </g>
    <g id="_04-bow-end-orange-navy" data-name="04-bow-end-orange-navy">
      <path class="cls-14" d="M348.06,337.01c-70.01,1.47-128.16-54.3-129.63-124.31s54.3-128.16,124.31-129.63l299.93-6.28c70.01-1.47,128.16,54.3,129.63,124.31,1.47,70.01-54.3,128.16-124.31,129.63l-299.93,6.28Z"/>
      <path class="cls-4" d="M347.69,319.01c-60.09,1.26-110-46.61-111.26-106.7-1.26-60.09,46.61-110,106.7-111.26l299.93-6.28c60.09-1.26,110,46.61,111.26,106.7,1.26,60.09-46.61,110-106.7,111.26l-299.93,6.28Z"/>
      <path class="cls-5" d="M343.31,110.06l299.93-6.28c55.22-1.16,100.92,42.67,102.07,97.89,1.16,55.22-42.67,100.92-97.89,102.07l-299.93,6.28c-55.22,1.16-100.92-42.67-102.07-97.89-1.16-55.22,42.67-100.92,97.89-102.07Z"/>
      <text class="cls-2" transform="translate(279.01 226.4) rotate(-1.2)"><tspan class="cls-10" x="0" y="0">#Pr</tspan><tspan class="cls-8" x="90.81" y="0">z</tspan><tspan class="cls-13" x="114.33" y="0">yJed</tspan><tspan class="cls-15" x="218.78" y="0">n</tspan><tspan class="cls-13" x="246.67" y="0">ymS</tspan><tspan class="cls-7" x="345.16" y="0">t</tspan><tspan class="cls-13" x="363.35" y="0">ole</tspan></text>
    </g>
    <g id="_05-radius-red-yellow" data-name="05-radius-red-yellow">
      <rect class="cls-14" x="758.05" y="-144.18" width="254" height="554" rx="67" ry="67" transform="translate(729.7948 1014.2071) rotate(-88.5443)"/>
      <rect class="cls-4" x="776.05" y="-126.18" width="218" height="518" rx="49" ry="49" transform="translate(729.7948 1014.2071) rotate(-88.5443)"/>
      <path class="cls-9" d="M677.66,27.51l419.86,10.67c22.08.56,39.53,18.92,38.97,41l-3.05,119.96c-.56,22.08-18.92,39.53-41,38.97l-419.86-10.67c-22.08-.56-39.53-18.92-38.97-41l3.05-119.96c.56-22.08,18.92-39.53,41-38.97Z"/>
      <text class="cls-2" transform="translate(668.05 142.3) rotate(1.46)"><tspan class="cls-10" x="0" y="0">#Pr</tspan><tspan class="cls-8" x="90.81" y="0">z</tspan><tspan class="cls-13" x="114.33" y="0">yJed</tspan><tspan class="cls-15" x="218.78" y="0">n</tspan><tspan class="cls-13" x="246.67" y="0">ymS</tspan><tspan class="cls-7" x="345.16" y="0">t</tspan><tspan class="cls-13" x="363.35" y="0">ole</tspan></text>
    </g>
    <g id="_06-notched-purple-yellow" data-name="06-notched-purple-yellow">
      <path class="cls-14" d="M78.36,726.95c-14.86.87-27.66-10.51-28.53-25.38-.42-7.16-6.58-12.64-13.74-12.22-14.86.87-27.66-10.51-28.53-25.38l-7.01-119.8c-.87-14.86,10.51-27.66,25.38-28.53,7.16-.42,12.64-6.58,12.22-13.74-.87-14.86,10.51-27.66,25.38-28.53l419.28-24.53c14.86-.87,27.66,10.51,28.53,25.38.42,7.16,6.58,12.64,13.74,12.22,14.86-.87,27.66,10.51,28.53,25.38l7.01,119.8c.87,14.86-10.51,27.66-25.38,28.53-7.16.42-12.64,6.58-12.22,13.74.87,14.86-10.51,27.66-25.38,28.53l-419.28,24.53Z"/>
      <path class="cls-4" d="M77.3,708.98c-4.96.29-9.22-3.5-9.51-8.46-1-17.06-15.69-30.13-32.76-29.14-4.96.29-9.22-3.5-9.51-8.46l-7.01-119.8c-.29-4.96,3.5-9.22,8.46-9.51,17.06-1,30.13-15.69,29.14-32.76-.29-4.96,3.5-9.22,8.46-9.51l419.28-24.53c4.96-.29,9.22,3.5,9.51,8.46,1,17.06,15.69,30.14,32.76,29.14,4.96-.29,9.22,3.5,9.51,8.46l7.01,119.8c.29,4.96-3.5,9.22-8.46,9.51-17.06,1-30.13,15.69-29.14,32.76.29,4.96-3.5,9.22-8.46,9.51l-419.28,24.53Z"/>
      <path class="cls-11" d="M65.1,500.34l419.28-24.53c1.29,22.05,20.21,38.89,42.27,37.6l7.01,119.8c-22.05,1.29-38.89,20.21-37.6,42.27l-419.28,24.53c-1.29-22.05-20.21-38.89-42.27-37.6l-7.01-119.8c22.05-1.29,38.89-20.21,37.6-42.27Z"/>
      <text class="cls-2" transform="translate(65.1 615.49) rotate(-3.35)"><tspan class="cls-10" x="0" y="0">#Pr</tspan><tspan class="cls-8" x="90.81" y="0">z</tspan><tspan class="cls-13" x="114.33" y="0">yJed</tspan><tspan class="cls-15" x="218.78" y="0">n</tspan><tspan class="cls-13" x="246.67" y="0">ymS</tspan><tspan class="cls-7" x="345.16" y="0">t</tspan><tspan class="cls-13" x="363.35" y="0">ole</tspan></text>
    </g>
  </g>
</svg>