<?xml version="1.0" encoding="UTF-8"?>
<svg id="Layer_2" data-name="Layer 2" xmlns="http://www.w3.org/2000/svg" viewBox="0 0 206.96 206.96">
  <defs>
    <style>
      .cls-1 {
        fill: #1e2448;
      }

      .cls-2 {
        fill: #e30615;
      }

      .cls-3 {
        fill: #fff;
        stroke: #8f92a4;
        stroke-miterlimit: 10;
      }
    </style>
  </defs>
  <g id="Layer_1-2" data-name="Layer 1">
    <g>
      <path class="cls-3" d="M58.52.5h89.92c32.02,0,58.02,26,58.02,58.02v89.93c0,32.02-26,58.02-58.02,58.02H58.52c-32.02,0-58.02-26-58.02-58.02V58.52C.5,26.5,26.5.5,58.52.5Z" transform="translate(206.96 0) rotate(90)"/>
      <path class="cls-1" d="M58.52,9.5h89.92c27.05,0,49.02,21.96,49.02,49.02v89.93c0,27.05-21.96,49.02-49.02,49.02H58.52c-27.05,0-49.02-21.96-49.02-49.02V58.52c0-27.05,21.96-49.02,49.02-49.02Z" transform="translate(206.96 0) rotate(90)"/>
      <rect class="cls-2" x="18.5" y="18.5" width="169.96" height="169.96" rx="40.02" ry="40.02"/>
    </g>
  </g>
</svg>