<?xml version="1.0" encoding="UTF-8"?>
<svg id="Layer_2" data-name="Layer 2" xmlns="http://www.w3.org/2000/svg" viewBox="0 0 206.66 206.66">
  <defs>
    <style>
      .cls-1 {
        fill: #09b8e3;
      }

      .cls-2 {
        fill: #1e2448;
      }

      .cls-3 {
        fill: #fff;
        stroke: #8f92a4;
        stroke-miterlimit: 10;
      }
    </style>
  </defs>
  <g id="Layer_1-2" data-name="Layer 1">
    <g>
      <path class="cls-3" d="M70.57,204.5L4.89,160.72c-2.74-1.83-4.39-4.9-4.39-8.2V54.14c0-3.29,1.65-6.37,4.39-8.2L70.57,2.15c1.62-1.08,3.52-1.65,5.46-1.65h54.59c1.94,0,3.85.58,5.46,1.65l65.68,43.79c2.74,1.83,4.39,4.9,4.39,8.2v98.38c0,3.29-1.65,6.37-4.39,8.2l-65.68,43.79c-1.62,1.08-3.52,1.65-5.46,1.65h-54.59c-1.94,0-3.85-.58-5.46-1.65Z"/>
      <path class="cls-2" d="M73.24,195.47l-59.26-39.51c-2.8-1.87-4.48-5.01-4.48-8.37V59.07c0-3.36,1.68-6.5,4.48-8.37L73.24,11.19c1.65-1.1,3.59-1.69,5.58-1.69h49.02c1.99,0,3.93.59,5.58,1.69l59.26,39.51c2.8,1.87,4.48,5.01,4.48,8.37v88.53c0,3.36-1.68,6.5-4.48,8.37l-59.26,39.51c-1.65,1.1-3.59,1.69-5.58,1.69h-49.02c-1.99,0-3.93-.59-5.58-1.69Z"/>
      <polygon class="cls-1" points="78.5 18.5 18.5 58.5 18.5 148.16 78.5 188.16 128.16 188.16 188.16 148.16 188.16 58.5 128.16 18.5 78.5 18.5"/>
    </g>
  </g>
</svg>