<?xml version="1.0" encoding="UTF-8"?>
<svg id="Layer_2" data-name="Layer 2" xmlns="http://www.w3.org/2000/svg" viewBox="0 0 206.66 188.25">
  <defs>
    <style>
      .cls-1 {
        fill: #1e2448;
      }

      .cls-2 {
        fill: #ab539a;
      }

      .cls-3 {
        fill: #fff;
        stroke: #8f92a4;
        stroke-miterlimit: 10;
      }
    </style>
  </defs>
  <g id="Layer_1-2" data-name="Layer 1">
    <g>
      <path class="cls-3" d="M101.28,187.58c-15.82-1.82-31.82-4.01-47.54-6.53-12.89-2.06-25.92-4.39-38.72-6.92l-9.34-1.85c-3-.59-5.17-3.23-5.17-6.29V22.28c0-3.06,2.17-5.7,5.17-6.29l9.34-1.84c14.37-2.84,28.99-5.41,43.43-7.66,14.18-2.21,28.59-4.16,42.82-5.79l1.3-.15c.48-.05.96-.06,1.43,0l1.3.14c15.47,1.7,31.1,3.81,46.46,6.25,13.33,2.12,26.78,4.56,39.98,7.23l9.29,1.88c2.99.61,5.14,3.23,5.14,6.28v143.34c0,2.98-2.06,5.57-4.96,6.24l-8.96,2.08c-13.19,3.07-26.66,5.72-40.05,7.89-15.64,2.53-31.59,4.47-47.4,5.75l-1.13.09c-.42.03-.84.03-1.25-.02l-1.13-.13Z"/>
      <path class="cls-1" d="M102.3,178.64c-15.69-1.8-31.55-3.98-47.15-6.48-12.78-2.05-25.7-4.36-38.4-6.87l-1.24-.25c-3.49-.69-6.01-3.75-6.01-7.32V30.54c0-3.56,2.52-6.63,6.01-7.32l1.24-.25c14.25-2.81,28.75-5.37,43.07-7.6,14.06-2.19,28.35-4.12,42.47-5.75l.18-.02c.55-.06,1.11-.06,1.66,0l.18.02c15.32,1.69,30.81,3.77,46.03,6.2,13.21,2.1,26.53,4.51,39.6,7.16l1.24.25c3.48.7,5.98,3.76,5.98,7.31v127.15c0,3.47-2.39,6.48-5.77,7.26l-1.19.28c-12.99,3.02-26.26,5.63-39.45,7.77-15.41,2.5-31.12,4.4-46.69,5.67l-.88.07-.88-.1Z"/>
      <path class="cls-2" d="M18.5,31.8v124.66c12.27,2.43,24.97,4.71,38.08,6.81,16.1,2.58,31.7,4.69,46.75,6.42,14.37-1.17,29.75-2.95,45.98-5.58,13.76-2.23,26.72-4.83,38.85-7.65,0-41.55,0-83.11,0-124.66-12.57-2.55-25.65-4.93-39.23-7.09-15.75-2.51-30.97-4.53-45.6-6.14-13.59,1.56-27.64,3.45-42.12,5.7-14.78,2.3-29.03,4.83-42.71,7.53Z"/>
    </g>
  </g>
</svg>