<?xml version="1.0" encoding="UTF-8"?>
<svg id="Layer_2" data-name="Layer 2" xmlns="http://www.w3.org/2000/svg" viewBox="0 0 187.66 187.66">
  <defs>
    <style>
      .cls-1 {
        fill: #fff;
      }

      .cls-2 {
        fill: #1e2448;
      }

      .cls-3 {
        isolation: isolate;
      }
    </style>
  </defs>
  <g id="Layer_1-2" data-name="Layer 1">
    <g>
      <path class="cls-2" d="M63.74,185.97L4.48,146.46c-2.8-1.87-4.48-5.01-4.48-8.37V49.57c0-3.36,1.68-6.5,4.48-8.37L63.74,1.69c1.65-1.1,3.59-1.69,5.58-1.69h49.02c1.99,0,3.93.59,5.58,1.69l59.26,39.51c2.8,1.87,4.48,5.01,4.48,8.37v88.53c0,3.36-1.68,6.5-4.48,8.37l-59.26,39.51c-1.65,1.1-3.59,1.69-5.58,1.69h-49.02c-1.99,0-3.93-.59-5.58-1.69Z"/>
      <polygon class="cls-1" points="69 9 9 49 9 138.66 69 178.66 118.66 178.66 178.66 138.66 178.66 49 118.66 9 69 9"/>
    </g>
    <g class="cls-3">
      <path class="cls-2" d="M40.38,145.26V38.7h18.06l35.22,70.74,35.22-70.74h18.06v106.56h-18.8v-63.64l-30.93,63.64h-7.1l-30.93-63.64v63.64h-18.8Z"/>
    </g>
  </g>
</svg>
