<?xml version="1.0" encoding="UTF-8"?>
<svg id="Layer_2" data-name="Layer 2" xmlns="http://www.w3.org/2000/svg" viewBox="0 0 187.96 187.96">
  <defs>
    <style>
      .cls-1 {
        fill: #fff;
      }

      .cls-2 {
        fill: #1e2448;
      }

      .cls-3 {
        isolation: isolate;
      }
    </style>
  </defs>
  <g id="Layer_1-2" data-name="Layer 1">
    <g>
      <path class="cls-2" d="M93.98,187.96C42.16,187.96,0,145.8,0,93.98S42.16,0,93.98,0s93.98,42.16,93.98,93.98-42.16,93.98-93.98,93.98Z"/>
      <rect class="cls-1" x="9" y="9" width="169.96" height="169.96" rx="84.98" ry="84.98"/>
    </g>
    <g class="cls-3">
      <path class="cls-2" d="M93.91,149.61c-6.71,0-13.1-1.2-19.17-3.59-6.07-2.39-11.43-5.93-16.09-10.62-4.66-4.69-8.34-10.48-11.03-17.39-2.69-6.91-4.03-14.87-4.03-23.9,0-11.79,2.26-21.82,6.77-30.08,4.51-8.26,10.58-14.57,18.2-18.91,7.62-4.34,16.07-6.51,25.34-6.51,13.71,0,24.49,3.18,32.34,9.55,7.84,6.36,13.1,15.37,15.76,27.01l-20.57,2.96c-1.92-6.22-5.07-11.19-9.44-14.91-4.37-3.72-9.95-5.61-16.76-5.66-6.76-.1-12.38,1.36-16.87,4.37-4.49,3.01-7.86,7.28-10.1,12.8-2.25,5.53-3.37,11.99-3.37,19.39s1.12,13.81,3.37,19.24c2.24,5.43,5.61,9.65,10.1,12.65,4.49,3.01,10.11,4.56,16.87,4.66,4.59.1,8.74-.69,12.47-2.37,3.72-1.68,6.87-4.32,9.44-7.92,2.56-3.6,4.39-8.21,5.48-13.84h-16.87v-15.54h38.33c.1.64.17,1.78.22,3.4.05,1.63.07,2.57.07,2.81,0,10.21-2.07,19.27-6.22,27.16-4.14,7.89-9.99,14.07-17.54,18.54-7.55,4.47-16.45,6.7-26.71,6.7Z"/>
    </g>
    <rect class="cls-2" x="93.98" y="91" width="11.78" height="15.54"/>
  </g>
</svg>
