<?xml version="1.0" encoding="UTF-8"?>
<svg id="Layer_2" data-name="Layer 2" xmlns="http://www.w3.org/2000/svg" viewBox="0 0 367.98 322.69">
  <defs>
    <style>
      .cls-1 {
        fill: #fdcd14;
      }

      .cls-2 {
        fill: #09b8e3;
      }

      .cls-3 {
        fill: #fff;
      }

      .cls-4 {
        fill: #1e2448;
      }

      .cls-5 {
        fill: #ab539a;
      }
    </style>
  </defs>
  <g id="Layer_1-2" data-name="Layer 1">
    <g>
      <path class="cls-3" d="M90.38,5.35h95.62c34.05,0,61.69,27.64,61.69,61.69v95.62c0,34.05-27.64,61.69-61.69,61.69h-95.62c-34.05,0-61.69-27.64-61.69-61.69v-95.62c0-34.05,27.64-61.69,61.69-61.69Z" transform="translate(235.8 -36.01) rotate(83.18)"/>
      <rect class="cls-4" x="38.26" y="14.92" width="199.86" height="199.86" rx="52.12" ry="52.12" transform="translate(235.8 -36.01) rotate(83.18)"/>
      <rect class="cls-2" x="47.83" y="24.49" width="180.72" height="180.72" rx="42.55" ry="42.55" transform="translate(-12.67 17.24) rotate(-6.82)"/>
    </g>
    <g>
      <path class="cls-3" d="M258.48,248.83c-60.38,0-109.5-49.12-109.5-109.5s49.12-109.5,109.5-109.5,109.5,49.12,109.5,109.5-49.12,109.5-109.5,109.5Z"/>
      <path class="cls-4" d="M258.48,239.26c-55.1,0-99.93-44.83-99.93-99.93s44.83-99.93,99.93-99.93,99.93,44.83,99.93,99.93-44.83,99.93-99.93,99.93Z"/>
      <rect class="cls-5" x="168.12" y="48.97" width="180.72" height="180.72" rx="90.36" ry="90.36"/>
    </g>
    <g>
      <path class="cls-3" d="M126.52,322.69c-36.79,0-73.6-4.24-109.43-12.6l-2.2-.51C6.17,307.55,0,299.77,0,290.82v-141.72c0-8.96,6.17-16.73,14.89-18.77l2.2-.51c35.82-8.36,72.64-12.6,109.43-12.6,36.78,0,73.6,4.24,109.43,12.6l2.2.51c8.72,2.03,14.89,9.81,14.89,18.77v141.72c0,8.96-6.17,16.73-14.89,18.77l-2.2.51c-35.82,8.36-72.64,12.6-109.43,12.6Z"/>
      <path class="cls-4" d="M126.52,311.64c-35.94,0-71.91-4.14-106.92-12.31h0c-5-1.17-8.54-5.63-8.54-10.77v-137.21c0-5.14,3.54-9.6,8.54-10.77h0c35-8.17,70.97-12.31,106.92-12.31,35.94,0,71.91,4.14,106.92,12.31h0c5,1.17,8.54,5.63,8.54,10.77v137.21c0,5.14-3.54,9.6-8.54,10.77h0c-35,8.17-70.97,12.31-106.92,12.31Z"/>
      <path class="cls-1" d="M230.92,288.56c-27.13,6.33-62.66,12.02-104.4,12.02-27.86,0-63.75-2.53-104.4-12.02,0-69.6,0-67.61,0-137.21,27.13-6.33,62.66-12.02,104.4-12.02,27.86,0,63.75,2.53,104.4,12.02,0,69.6,0,67.61,0,137.21Z"/>
    </g>
  </g>
</svg>
